<svg width="785" height="746" viewBox="0 0 785 746" fill="none" xmlns="http://www.w3.org/2000/svg">
<path d="M606.912 256.264C569.252 147.974 430.342 321.454 346.742 435.544C337.472 448.194 320.322 446.974 312.682 432.904C312.642 432.834 312.602 432.754 312.562 432.684C279.612 371.754 246.892 303.584 214.432 235.884C211.062 228.854 205.002 224.164 198.162 223.284L51.922 204.454L29.062 201.634C15.282 199.934 3.92201 213.244 8.61201 226.314C8.65201 226.414 8.68201 226.514 8.72201 226.604C62.562 371.834 243.252 643.654 298.192 651.134C359.102 659.424 387.532 585.424 420.032 527.614C543.762 307.584 572.162 301.104 553.762 379.064C545.182 415.384 587.152 426.934 596.592 390.794C611.322 334.454 616.952 285.124 606.912 256.274V256.264Z" fill="url(#paint0_linear_5_61)"/>
<path d="M777.822 240.804C729.052 110.974 519.502 31.5042 405.652 13.2443C328.792 0.904276 58.4421 -37.9657 7.38205 120.984C2.78205 135.304 -1.24795 159.554 0.362046 174.504C8.68205 251.854 13.992 231.774 19.152 223.424C24.312 215.074 33.232 209.674 43.082 210.134C49.912 210.454 55.6021 210.724 55.6021 210.724C98.362 214.294 288.382 267.564 176.532 207.834C151.072 194.234 184.522 191.044 185.742 190.744C204.082 186.194 200.522 186.524 226.772 182.764C845.732 76.5342 821.372 312.804 360.222 656.704C316.872 689.044 355.202 753.914 393.672 728.384C518.822 645.324 833.732 389.634 777.822 240.804Z" fill="url(#paint1_linear_5_61)"/>
<path d="M579.173 745.675C597.291 745.675 611.978 730.988 611.978 712.87C611.978 694.752 597.291 680.065 579.173 680.065C561.055 680.065 546.368 694.752 546.368 712.87C546.368 730.988 561.055 745.675 579.173 745.675Z" fill="#5536D1"/>
<defs>
<linearGradient id="paint0_linear_5_61" x1="292.772" y1="154.264" x2="378.452" y2="640.204" gradientUnits="userSpaceOnUse">
<stop offset="0.0769231" stop-color="#FF7300"/>
<stop offset="0.346154" stop-color="#EA9502"/>
<stop offset="0.586538" stop-color="#E59E03"/>
<stop offset="0.836538" stop-color="#E5C500"/>
</linearGradient>
<linearGradient id="paint1_linear_5_61" x1="698.222" y1="-303.986" x2="239.272" y2="490.934" gradientUnits="userSpaceOnUse">
<stop offset="0.355769" stop-color="#4B04B5" stop-opacity="0.8"/>
<stop offset="0.600962" stop-color="#5536D1"/>
</linearGradient>
</defs>
</svg>
