<svg width="172" height="40" viewBox="0 0 172 40" fill="none" xmlns="http://www.w3.org/2000/svg">
<path d="M30.9488 13.7468C29.0283 7.93793 21.9448 17.2438 17.6817 23.3638C17.209 24.0424 16.3344 23.977 15.9448 23.2222C15.9428 23.2185 15.9407 23.2142 15.9387 23.2104C14.2585 19.942 12.5899 16.2852 10.9347 12.6536C10.7628 12.2765 10.4538 12.0249 10.105 11.9777L2.64764 10.9676L1.48192 10.8164C0.77922 10.7252 0.199929 11.4392 0.439091 12.1403C0.44113 12.1456 0.44266 12.151 0.4447 12.1558C3.19021 19.9463 12.4043 34.5273 15.2059 34.9286C18.312 35.3733 19.7617 31.4037 21.419 28.3027C27.7285 16.4998 29.1767 16.1522 28.2384 20.3341C27.8009 22.2824 29.9411 22.902 30.4225 20.9633C31.1737 17.9411 31.4607 15.295 30.9488 13.7474V13.7468Z" fill="url(#paint0_linear_5_74)"/>
<path d="M39.6642 12.9176C37.1772 5.95321 26.4914 1.69026 20.6857 0.71076C16.7664 0.0488152 2.98014 -2.03626 0.37639 6.49017C0.141818 7.25833 -0.0636879 8.55915 0.0184123 9.3611C0.442682 13.5103 0.71346 12.4332 0.976588 11.9853C1.23972 11.5374 1.69458 11.2477 2.19687 11.2724C2.54516 11.2895 2.83532 11.304 2.83532 11.304C5.01582 11.4955 14.7057 14.3531 9.00202 11.149C7.70371 10.4195 9.40946 10.2483 9.47167 10.2323C10.4069 9.98818 10.2254 10.0059 11.564 9.80419C43.1272 4.10577 41.885 16.7798 18.3691 35.2274C16.1585 36.9622 18.1131 40.442 20.0748 39.0725C26.4567 34.6169 42.5152 20.9012 39.6642 12.9176Z" fill="url(#paint1_linear_5_74)"/>
<path d="M29.5342 40.0001C30.4581 40.0001 31.2071 39.2122 31.2071 38.2403C31.2071 37.2685 30.4581 36.4806 29.5342 36.4806C28.6104 36.4806 27.8614 37.2685 27.8614 38.2403C27.8614 39.2122 28.6104 40.0001 29.5342 40.0001Z" fill="#5536D1"/>
<path d="M52 31.671V7H59.249C61.9261 7 64.244 7.50437 66.2027 8.5131C68.1614 9.52206 69.6771 10.9473 70.7501 12.7894C71.8228 14.6317 72.3592 16.8136 72.3592 19.3356C72.3592 21.8464 71.8228 24.0285 70.7501 25.8816C69.6771 27.7237 68.1614 29.1492 66.2027 30.1579C64.244 31.1667 61.9261 31.671 59.249 31.671H52ZM56.5473 27.2467H59.4115C61.1831 27.2467 62.6841 26.9397 63.9145 26.3258C65.1546 25.7008 66.0945 24.8017 66.7343 23.6283C67.3838 22.4442 67.7087 21.0133 67.7087 19.3356C67.7087 17.6469 67.3838 16.216 66.7343 15.0429C66.0945 13.8696 65.1546 12.976 63.9145 12.3619C62.6841 11.7369 61.1831 11.4243 59.4115 11.4243H56.5473V27.2467ZM75.2087 31.671V7H89.4999V11.4243H79.7558V17.033H88.8946V21.4737H79.7558V27.2467H89.6477V31.671H75.2087ZM105.12 31.671H100.307L91.4784 7H96.247L102.714 25.8816L109.151 7H113.934L105.12 31.671Z" fill="#5536D1"/>
<path d="M120.873 32C119.357 32 117.999 31.6328 116.798 30.8981C115.597 30.1525 114.653 29.1382 113.964 27.8553C113.284 26.5616 112.945 25.0922 112.945 23.4473C112.945 21.8136 113.284 20.3553 113.964 19.0724C114.653 17.7785 115.597 16.7588 116.798 16.0132C117.999 15.2677 119.357 14.8947 120.873 14.8947C122.389 14.8947 123.737 15.2677 124.918 16.0132C126.109 16.7588 127.044 17.7785 127.723 19.0724C128.412 20.3553 128.757 21.8136 128.757 23.4473C128.757 25.0922 128.412 26.5616 127.723 27.8553C127.044 29.1382 126.109 30.1525 124.918 30.8981C123.737 31.6328 122.389 32 120.873 32ZM120.858 27.7731C121.537 27.7731 122.143 27.5867 122.674 27.2139C123.216 26.8301 123.639 26.3148 123.944 25.6678C124.259 25.0098 124.416 24.2643 124.416 23.4309C124.416 22.6086 124.259 21.8741 123.944 21.2271C123.639 20.5801 123.216 20.0702 122.674 19.6974C122.143 19.3136 121.537 19.1218 120.858 19.1218C120.169 19.1218 119.554 19.3136 119.013 19.6974C118.481 20.0702 118.058 20.5801 117.743 21.2271C117.438 21.8741 117.285 22.6086 117.285 23.4309C117.285 24.2643 117.438 25.0098 117.743 25.6678C118.058 26.3148 118.481 26.8301 119.013 27.2139C119.554 27.5867 120.169 27.7731 120.858 27.7731ZM141.631 31.2434C140.499 31.7478 139.402 32 138.339 32C137.236 32 136.262 31.7424 135.415 31.2271C134.579 30.7007 133.924 29.9715 133.452 29.0396C132.979 28.0967 132.743 27.0111 132.743 25.783V19.4342H130.159V15.2237H132.965V11.1119H136.98V15.2237H141.07V19.4342H136.98V24.9276C136.98 25.8268 137.202 26.5285 137.645 27.0329C138.088 27.5263 138.639 27.7731 139.298 27.7731C139.899 27.7731 140.484 27.5647 141.055 27.1481L141.631 31.2434ZM157.694 29.8289C155.863 31.2765 153.86 32 151.685 32C150.071 32 148.619 31.6162 147.33 30.8487C146.05 30.0703 145.036 29.0176 144.288 27.6909C143.55 26.3642 143.181 24.8675 143.181 23.2008C143.181 21.6109 143.516 20.1907 144.185 18.9408C144.864 17.6909 145.784 16.704 146.946 15.9802C148.107 15.2567 149.426 14.8947 150.903 14.8947C152.428 14.8947 153.772 15.2951 154.933 16.0954C156.094 16.885 157 17.9923 157.65 19.4178C158.299 20.8323 158.624 22.4716 158.624 24.3355V24.8618H147.743C147.92 25.5088 148.206 26.079 148.599 26.5723C149.003 27.0549 149.505 27.4387 150.105 27.7237C150.716 28.0089 151.409 28.1514 152.187 28.1514C153.693 28.1514 155.095 27.6087 156.395 26.5232L157.694 29.8289ZM147.551 22.4606H154.712C154.633 21.7479 154.431 21.1229 154.106 20.5855C153.791 20.0374 153.373 19.6098 152.851 19.3026C152.339 18.9956 151.764 18.8423 151.124 18.8423C150.475 18.8423 149.894 19.0012 149.382 19.3192C148.88 19.6372 148.471 20.0648 148.157 20.6019C147.842 21.1393 147.64 21.7589 147.551 22.4606ZM165.548 31.671H161.311V15.2237H165.002L165.15 18.0691C165.642 17.0714 166.311 16.2928 167.157 15.7336C168.004 15.1745 168.973 14.8947 170.066 14.8947C170.381 14.8947 170.696 14.9223 171.011 14.9771C171.336 15.0209 171.665 15.0921 172 15.1909L171.469 19.4342C170.819 19.226 170.204 19.1218 169.623 19.1218C168.806 19.1218 168.088 19.33 167.467 19.7468C166.857 20.1526 166.385 20.7227 166.05 21.4573C165.716 22.181 165.548 23.0308 165.548 24.0067V31.671Z" fill="#FF7300"/>
<defs>
<linearGradient id="paint0_linear_5_74" x1="14.9295" y1="8.27534" x2="19.7488" y2="34.2588" gradientUnits="userSpaceOnUse">
<stop offset="0.0769231" stop-color="#FF7300"/>
<stop offset="0.346154" stop-color="#EA9502"/>
<stop offset="0.586538" stop-color="#E59E03"/>
<stop offset="0.836538" stop-color="#E5C500"/>
</linearGradient>
<linearGradient id="paint1_linear_5_74" x1="35.6051" y1="-16.3062" x2="10.3794" y2="25.2286" gradientUnits="userSpaceOnUse">
<stop offset="0.355769" stop-color="#4B04B5" stop-opacity="0.8"/>
<stop offset="0.600962" stop-color="#5536D1"/>
</linearGradient>
</defs>
</svg>
